# xmcd
#
# Track frame offsets:
#	180
#	14521
#	29476
#	42767
#	56835
#	73342
#	89008
#	101840
#	119644
#	133881
#	147452
#	162270
#	174927
#	190999
#
# Disc length: 2765 seconds
#
# Revision: 0
# Processed by: cddbd v1.5.2PL0 Copyright (c) Steve Scherf et al.
# Submitted via: EasyCDDAExtractor 15.2.5.1
#
DISCID=da0acb0e
DTITLE=Vicky Layne - No Pain, No Gain
DYEAR=1900
DGENRE=country
TTITLE0=I've Had It
TTITLE1=That Train
TTITLE2=Still Not Over You
TTITLE3=Even Cowgirls Get The Blues
TTITLE4=That's All Behind Me Now
TTITLE5=New Mexico
TTITLE6=He Does My Heart Good
TTITLE7=Danser
TTITLE8=In A Lover's Eyes
TTITLE9=Make Something Of It
TTITLE10=Walking Away A Winner
TTITLE11=The Best OfMe
TTITLE12=Aimer
TTITLE13=No Pain, No Gain
EXTD=
EXTT0=
EXTT1=
EXTT2=
EXTT3=
EXTT4=
EXTT5=
EXTT6=
EXTT7=
EXTT8=
EXTT9=
EXTT10=
EXTT11=
EXTT12=
EXTT13=
PLAYORDER=
